HIERARCHY
ROOT Hip
{
	OFFSET 0 0 0
	CHANNELS 6 Xposition Yposition Zposition Zrotation Yrotation Xrotation
	JOINT ShoulderCenter
	{
		OFFSET 0 0.4363 0
		CHANNELS 3 Zrotation Yrotation Xrotation
		JOINT Head
		{
			OFFSET 0 0.1849 0
			CHANNELS 3 Zrotation Yrotation Xrotation
			End Site
			{
				OFFSET 0.0 0.0891 0.0
			}
		}
		JOINT ShoulderRight
		{
			OFFSET -0.14 0 0
			CHANNELS 3 Zrotation Yrotation Xrotation
			JOINT ElbowRight
			{
				OFFSET -0.25 0 0
				CHANNELS 3 Zrotation Yrotation Xrotation
				JOINT WristRight
				{
					OFFSET -0.23 0 0
					CHANNELS 3 Zrotation Yrotation Xrotation
					End Site
					{
						OFFSET -0.0832 0.0 0.0
					}
				}
			}
		}
		JOINT ShoulderLeft
		{
			OFFSET 0.14 0 0
			CHANNELS 3 Zrotation Yrotation Xrotation
			JOINT ElbowLeft
			{
				OFFSET 0.25 0 0
				CHANNELS 3 Zrotation Yrotation Xrotation
				JOINT WristLeft
				{
					OFFSET 0.23 0 0
					CHANNELS 3 Zrotation Yrotation Xrotation
					End Site
					{
						OFFSET 0.0832 0.0 0.0
					}
				}
			}
		}
	}
	JOINT HipRight
	{
		OFFSET -0.0952 0 0
		CHANNELS 3 Zrotation Yrotation Xrotation
		JOINT KneeRight
		{
			OFFSET 0 -0.3732 0
			CHANNELS 3 Zrotation Yrotation Xrotation
			JOINT AnkleRight
			{
				OFFSET 0 -0.346 0
				CHANNELS 3 Zrotation Yrotation Xrotation
				End Site
				{
					OFFSET 0.0 0.0 0.0891
				}
			}
		}
	}
	JOINT HipLeft
	{
		OFFSET 0.0952 0 0
		CHANNELS 3 Zrotation Yrotation Xrotation
		JOINT KneeLeft
		{
			OFFSET 0 -0.3732 0
			CHANNELS 3 Zrotation Yrotation Xrotation
			JOINT AnkleLeft
			{
				OFFSET 0 -0.346 0
				CHANNELS 3 Zrotation Yrotation Xrotation
				End Site
				{
					OFFSET 0.0 0.0 0.0891
				}
			}
		}
	}
}
MOTION
Frames: 29
Frame Time: 0.033333
0.0127192 1.0148 -1.73437 1.39798 0.663545 -6.32839 -0.730746 -0.0602903 -4.71376 0 0 0 11.503 -20.6988 -135.11 6.30843e-05 87.0251 5.90078e-05 0 0 0 -45.7269 7.91695 -60.8558 0.015749 -0.0318647 0.0313468 -2.41484e-06 -1.50927e-07 -1.50927e-07 13.9 -5.32606 23.8699 -6.30219 5.474 -27.047 0 0 0 -26.4129 6.39213 23.6663 21.0228 -2.56731 -17.8306 0 0 0 
0.00916577 1.02113 -1.73876 0.531461 6.47036 -6.70246 -0.30435 0.52411 -4.57241 0 -4.33557e-07 0 13.4734 -24.6636 -139.142 -0.000820009 89.2997 -0.000821594 0 0 0 -45.0969 8.20925 -72.1073 0.0127461 -0.0258083 0.0253905 2.3697e-23 -1.50927e-07 -8.99597e-15 16.7595 -5.95244 23.3637 -8.36762 5.32447 -24.7913 0 0 0 -22.8111 6.39067 24.7917 18.2173 -2.2442 -17.8993 0 -2.13443e-07 0 
0.00874731 1.02113 -1.74132 0.300873 7.72685 -6.5021 -0.21399 -0.0714695 -4.32679 0 0 -3.33505e-09 14.1487 -22.5607 -138.867 -0.000235044 89.0394 -0.000232931 0 0 0 -45.0951 7.99773 -73.0813 0.0129849 -0.0287374 0.0281734 -2.3697e-23 -8.99597e-15 1.50927e-07 22.1511 -5.98553 21.7845 -14.4268 3.65663 -19.9651 8.27093e-07 -2.66804e-08 -1.92573e-16 -21.7257 6.55426 24.5074 16.9674 -1.97185 -15.6455 0 0 0 
0.00848755 1.02113 -1.75239 -0.646946 17.7404 -5.74734 -0.681012 1.10372 -3.34914 0 0 0 17.1431 -33.6863 -144.861 -0.00017329 88.3249 -0.000167403 0 0 0 -45.9438 3.6992 -80.3161 -0.150523 -3.77789 3.58297 0 0 0 29.942 -3.11473 14.7987 -20.9207 1.88142 -11.5084 -8.53774e-07 0 0 -17.5418 5.88432 23.4669 12.9942 -1.89947 -14.6841 0 0 0 
0.00874731 1.01383 -1.7582 -3.24257 23.6666 -4.29004 -2.52833 -2.18736 -4.71124 0 0 0 17.4457 -32.9859 -144.382 -3.05157e-05 86.6906 -3.48189e-05 0 0 0 -44.3453 2.62955 -80.3786 -0.264083 -4.48885 4.26837 0 0 0 34.0934 -1.54131 10.3291 -22.1146 2.09032 -8.24139 0 0 0 -11.6958 2.85972 21.2079 8.02263 -0.776664 -14.125 0 0 0 
0.00916577 1.00792 -1.76384 -5.52224 30.1017 -5.68043 -2.06031 -0.313065 -3.3727 0 0 0 22.1735 -39.213 -148.218 -4.9827e-05 83.8811 -5.16218e-05 0 0 0 -143.86 -54.8983 66.2158 6.6577e-06 -49.7036 -1.43744e-05 0 0 0 40.4679 3.2515 5.6865 -25.4696 1.16952 -3.88646 0 0 0 -8.88598 1.82973 20.8296 7.45786 -0.113588 -13.0327 0 0 0 
0.0134175 1.00792 -1.77393 -8.8073 39.6492 -6.56716 -1.08969 0.888008 -0.334509 0 0 0 27.6223 -41.6591 -155.458 -1.19345e-05 84.2347 -1.32001e-05 0 0 0 -154.769 -47.5108 80.6509 -7.35197e-06 -49.5372 -3.68891e-07 0 0 0 46.3672 14.0565 3.57569 -34.5409 0.637407 -2.93638 0 0 0 -5.85311 1.16338 16.2713 7.49723 0.102072 -8.5534 0 0 0 
0.0139631 1.00438 -1.77571 -12.3272 44.5336 -7.09161 -1.01444 0.58216 -1.04066 0 0 0 31.6342 -36.9576 -155.531 -1.15643e-05 84.26 -1.40577e-05 8.53774e-07 0 0 -154.395 -43.2944 -103.756 3.36424e-05 -78.0702 -3.60704e-05 0 0 0 50.5533 25.7576 -0.252435 -38.2078 -1.30342 5.51757 -6.41081e-15 -3.44177e-06 2.13443e-07 -2.06478 -0.0304941 12.5858 6.21648 0.462889 -6.3745 0 0 0 
0.0163066 1.00438 -1.7774 -13.685 48.1687 -8.9837 -3.05794 -0.705263 -0.519149 0 0 0 33.7273 -32.3743 -153.891 -2.13174e-06 84.5661 -7.42014e-06 0 0 0 -152.473 -41.3082 -99.7799 -2.56879e-05 -78.0817 2.0832e-05 0 0 0 51.6507 30.6715 -1.69284 -39.442 -2.18983 9.86164 -1.27222e-14 -3.4151e-06 4.26887e-07 -1.78 -0.181522 11.4721 7.95003 0.361751 -3.53325 0 0 0 
0.0174741 1.01034 -1.7774 -15.1908 48.7945 -10.2665 -2.30431 -0.114827 -0.579577 0 0 0 36.2552 -25.391 -151.133 -0.000116053 85.6375 -0.000113938 0 0 0 -152.534 -39.9351 -99.3546 -4.84205e-05 -77.9445 4.3564e-05 0 0 0 51.8237 30.9041 -1.40083 -38.9264 -2.54584 9.17338 4.26887e-07 -1.59028e-15 4.26887e-07 -0.332596 -1.00879 10.8331 8.78725 0.546436 -2.97973 4.26887e-07 1.59028e-15 -4.26887e-07 
0.0385752 1.01099 -1.77748 -20.9015 51.9959 -12.6022 -0.797118 -0.0381431 0.356824 0 0 0 37.6206 -24.6176 -154.339 4.03436e-05 88.4046 4.63813e-05 0 0 0 -154.72 -37.4353 -93.6453 7.91712e-06 -78.0086 -1.52015e-05 0 0 0 51.8927 29.0266 -3.4015 -36.9442 -1.32124 4.09313 0 0 0 4.1137 -0.86331 6.57055 6.46149 -0.0724052 0.379458 0 0 0 
0.0471794 1.01099 -1.7811 -19.7762 51.2445 -12.3983 -0.0851439 0.863096 0.981913 0 0 0 34.6655 -18.1839 -153.945 180 85.9685 180 0 0 0 -155.678 -37.3698 -93.845 2.03292e-05 -77.8177 -2.51863e-05 0 0 0 48.6494 18.282 -2.66748 -31.101 0.775992 -2.04654 0 0 0 2.50143 -0.944046 6.53123 7.48816 -0.677803 3.49496 0 0 0 
0.0688879 1.01652 -1.78191 -21.4852 53.3857 -12.6152 0.799912 -0.161051 -0.781142 0 0 0 33.5546 -16.5341 -150.978 -180 87.9808 -180 0 0 0 -156.191 -35.8041 -93.7318 -3.57964e-05 -77.9753 3.33683e-05 0 0 0 45.517 13.7773 -3.77719 -26.6833 2.31562 -5.94494 0 0 0 2.37713 -0.965154 4.66074 8.47469 -1.06535 5.53284 0 0 0 
0.081438 1.01765 -1.78651 -19.0135 55.7036 -11.0309 -1.31561 -0.321817 0.230866 5.33609e-08 0 0 33.188 -13.3498 -149.401 -180 86.9306 -180 0 0 0 -156.98 -35.8297 -121.539 6.56241e-06 -80.3377 -7.77414e-06 0 0 0 41.8552 11.464 -3.79896 -24.8968 2.33202 -6.7248 0 -3.41509e-06 0 -2.51479 -1.33922 3.98738 11.679 -1.32492 8.04841 0 0 0 
0.10206 1.01765 -1.79391 -14.2823 62.3034 -9.28165 -4.33088 -5.50914 1.75473 8.53774e-07 0 0 31.7708 -6.02511 -147.128 -180 85.7002 -180 0 0 0 -158.345 -35.7216 120.365 3.29542e-06 -59.2071 -5.80015e-06 0 0 0 34.3959 7.26475 -1.68575 -21.8643 3.32693 -9.86515 0 0 0 -9.78262 -1.82234 6.72716 15.4465 -1.41048 7.8107 0 0 0 
0.113722 1.01765 -1.79779 -9.80901 63.4347 -3.21108 -7.17574 -1.57766 -4.46446 0 0 0 29.5787 -8.24182 -143.2 -179.998 89.5975 -179.998 -3.41509e-06 0 0 -2.49879 -13.0147 -145.6 5.73967e-05 -86.711 -5.83026e-05 0 0 0 32.962 9.94595 -2.48717 -25.5616 2.52682 -10.4082 0 0 0 -13.4338 -2.2642 3.11222 16.1632 -1.08846 9.09089 0 0 0 
0.118535 0.962015 -1.79779 -6.17204 60.8922 0.0722559 -8.86958 4.23923 -4.95264 0 0 0 12.328 -12.9989 -141.135 -4.36129e-05 80.9741 -4.84576e-05 0 0 0 2.16272 -15.5709 -147.339 8.93848e-05 -85.6205 -9.77486e-05 1.73423e-06 -8.07563e-16 5.33609e-08 37.0817 13.4489 0.0897993 -33.0094 0.120811 -10.0261 0 0 0 -19.9984 -3.36838 2.06657 19.6445 1.02443 10.4355 0 0 0 
0.12864 0.962015 -1.79779 -4.2694 71.9487 0.113777 -11.1622 -3.60837 0.130708 0 0 0 13.5158 -11.1042 -142.812 -2.79523e-05 80.088 -2.79523e-05 0 0 0 6.36911 -17.4472 -153.564 -5.01027e-06 -84.0657 3.0078e-06 0 0 0 36.2697 19.7238 0.0774698 -38.9113 -0.330798 -4.4193 -8.53774e-07 0 0 -24.0579 -3.91069 4.67461 23.6549 0.598763 10.0542 0 0 0 
0.132748 0.952563 -1.80394 3.22908 70.2487 9.42569 -15.2969 1.95762 -2.20319 0 0 0 12.8798 -18.0239 -142.493 7.06315e-06 70.3143 7.06315e-06 0 0 0 7.2972 -19.669 -150.995 2.78545e-05 -85.1667 -3.03093e-05 0 0 0 31.2206 19.8691 -1.84086 -38.7138 -0.745511 -5.57992 0 0 0 -29.4387 -8.15141 -0.327459 25.1082 1.51543 14.1716 0 0 0 
0.1499 0.962015 -1.81682 13.038 70.3092 19.8147 -18.6306 -0.333265 -4.04202 0 0 0 13.6407 -10.81 -139.642 -3.22092e-05 73.3864 -3.46497e-05 -3.41509e-06 -2.54444e-14 -8.53774e-07 4.87785 -13.7606 -147.228 3.32664e-05 -77.1531 -3.48612e-05 0 0 0 25.994 18.3022 -1.78988 -37.355 -0.954217 -7.87382 0 0 0 -34.1683 -8.18678 0.225613 25.9871 1.20995 12.1559 0 0 0 
0.150488 0.981094 -1.81682 6.87973 72.1361 13.562 -15.6689 -0.120833 -1.10197 0 0 0 17.3249 -7.30424 -140.478 -1.43056e-05 80.3167 -1.43056e-05 0 0 0 0.742792 -12.2007 -147.145 9.12151e-06 -76.5848 -1.1553e-05 0 0 0 31.2711 23.9695 -0.898996 -41.8444 -0.398704 -2.7293 0 0 0 -35.7479 -12.3498 -1.231 28.9686 1.62397 16.3166 0 0 0 
0.169052 1.00727 -1.81682 -16.1092 73.424 -10.3397 -2.36341 0.667503 -0.982687 0 0 0 20.7074 -9.68664 -140.222 -7.08045e-05 86.6513 -7.38243e-05 0 0 0 -8.15795 -11.4856 -142.965 3.39669e-06 -76.5014 -4.30857e-06 0 0 0 36.3057 19.7755 2.24193 -39.1523 0.148335 -6.42172 0 0 0 -27.9965 -5.60198 2.62829 25.3401 0.0795024 4.03108 0 0 0 
0.174609 1.01127 -1.81497 -20.374 76.3656 -14.6629 -1.03519 -0.109501 -1.05711 0 0 0 20.1095 -6.84349 -139.215 -0.00196215 89.7376 -0.00196516 0 0 0 -9.99265 -11.9986 -138.135 1.01586e-05 -77.9689 -7.12335e-06 0 0 0 38.0083 21.0895 1.91623 -39.8771 0.0547877 -3.9673 0 0 0 -28.4755 -6.42119 3.93685 27.8119 0.00907345 1.66507 4.26887e-07 -3.4151e-06 -1.27222e-14 
0.182059 1.01127 -1.81375 -23.9144 78.3534 -18.8914 -0.603476 -1.0298 -1.47836 0 0 0 21.376 -5.34482 -137.313 -9.61726e-05 88.9246 -9.67763e-05 0 0 0 -10.1234 -11.9621 -141.225 -2.7864e-06 -79.966 6.6529e-07 0 0 0 38.5996 21.3283 2.39564 -40.1649 0.04033 -2.38307 0 0 0 -27.8512 -5.59992 3.63336 26.2983 -0.0348942 -1.62768 0 0 0 
0.1827 1.01142 -1.81235 -26.631 79.7602 -21.1581 -0.502048 -0.614798 -1.84217 0 0 0 22.6097 -2.70237 -138.487 -180 88.4122 -180 0 0 0 -8.87797 -9.07809 -137.666 2.0734e-05 -75.8873 -2.10382e-05 0 0 0 38.9697 23.4779 1.60334 -40.9201 -0.00446764 0.266601 0 0 0 -27.0668 -4.1472 3.59026 23.6109 -0.177485 -3.75116 0 0 0 
0.185011 1.0145 -1.80815 -38.7747 81.2914 -30.7268 -0.245498 1.16781 1.13577 0 0 0 25.0877 -6.7976 -143.173 180 89.526 180 0 0 -2.13443e-07 -6.90452 -13.6512 -144.168 5.71765e-05 -77.9898 -6.11222e-05 0 0 0 39.0237 31.5301 -2.70944 -43.3445 0.449027 8.14212 0 0 0 -25.0224 -4.26943 0.907521 21.2191 -0.37094 -4.08833 0 0 0 
0.185155 1.0145 -1.80655 -44.6808 82.3408 -36.6254 -0.233075 2.11958 1.17629 0 0 0 24.7644 -6.29083 -143.018 -0.00125394 89.7815 -0.00125635 0 0 0 -6.78951 -15.638 -143.839 9.17203e-06 -77.3998 -1.00831e-05 0 0 0 37.3582 32.3497 -6.79059 -41.4582 0.889896 14.5491 0 3.4151e-06 0 -25.1606 -6.10962 -2.40733 21.7928 -0.0848258 -1.03155 0 0 0 
0.19217 1.0145 -1.80632 -52.059 84.2067 -44.8328 -0.542386 0.0406953 1.34288 0 0 0 24.209 -3.48066 -140.907 -180 86.7505 180 0 0 0 -7.59244 -12.5794 -139.907 -3.08621e-05 -75.6097 3.42088e-05 0 0 0 36.5719 31.4246 -6.37117 -41.0937 0.829626 14.5562 0 0 0 -25.6207 -6.48377 -3.12145 21.9502 -0.0965716 -1.34757 0 0 0 
0.196166 1.0161 -1.80151 -39.2538 85.6497 -32.5673 -1.26504 -0.0455073 1.4992 0 0 0 23.0055 -3.13895 -141.938 180 83.948 180 0 0 0 -9.82317 -11.0517 -137.206 -8.6464e-06 -72.7165 7.42511e-06 0 0 0 33.6612 26.3186 -5.68787 -39.3051 0.396211 9.8515 0 1.33402e-08 0 -28.5569 -7.61441 -2.7185 24.2139 -0.127628 -2.2394 0 0 0 
